<?xml version="1.0" standalone="no"?>
<!DOCTYPE svg PUBLIC "-//W3C//DTD SVG 20010904//EN"
 "http://www.w3.org/TR/2001/REC-SVG-20010904/DTD/svg10.dtd">
<svg version="1.0" xmlns="http://www.w3.org/2000/svg"
 width="260.000000pt" height="260.000000pt" viewBox="0 0 260.000000 260.000000"
 preserveAspectRatio="xMidYMid meet">
<metadata>
Created by potrace 1.11, written by Peter Selinger 2001-2013
</metadata>
<g transform="translate(0.000000,260.000000) scale(0.100000,-0.100000)"
fill="#000000" stroke="none">
<path d="M1140 2107 c-14 -6 -31 -20 -38 -29 -7 -10 -19 -18 -27 -18 -8 0 -27
-17 -42 -37 -15 -21 -31 -40 -35 -43 -11 -9 -36 -84 -43 -132 -4 -28 -1 -58
10 -87 15 -42 14 -45 -5 -66 -11 -12 -20 -26 -20 -32 0 -6 -11 -20 -24 -30
-25 -19 -86 -105 -86 -121 0 -6 -6 -12 -12 -15 -7 -3 -24 -27 -37 -53 -14 -27
-30 -53 -36 -59 -6 -5 -23 -43 -38 -83 -20 -55 -27 -92 -27 -147 0 -84 29
-179 61 -195 10 -6 19 -17 19 -24 0 -15 38 -43 83 -63 39 -17 34 -30 -15 -38
-45 -8 -101 -56 -119 -101 -22 -60 0 -146 40 -159 30 -9 37 -81 17 -163 -9
-37 -21 -68 -26 -70 -15 -5 -12 -22 5 -22 7 0 18 8 24 18 9 16 10 16 16 0 6
-15 20 -18 81 -18 l74 0 0 68 c0 41 5 75 13 87 15 19 37 13 37 -11 0 -8 4 -14
10 -14 5 0 10 -28 12 -62 l3 -63 363 -3 362 -2 1 42 1 43 15 -35 c8 -19 20
-38 27 -42 14 -9 176 -11 176 -2 0 4 -6 12 -13 18 -20 16 -64 127 -72 180 -4
25 -12 46 -17 46 -6 0 1 9 15 21 55 42 65 157 20 225 -18 28 -89 68 -140 79
-29 6 -31 8 -18 21 8 9 15 19 15 23 0 4 8 16 18 27 35 38 47 86 46 189 -1 100
-16 185 -34 185 -6 0 -10 8 -10 18 0 23 -68 157 -100 195 -14 16 -41 46 -60
65 -19 19 -39 44 -45 55 -5 11 -22 28 -36 36 -15 9 -42 28 -60 42 -19 14 -49
32 -66 40 -40 17 -45 28 -32 71 30 108 -14 216 -102 247 -40 14 -96 13 -129
-2z m0 -66 c0 -11 -39 -21 -45 -11 -2 4 -2 10 2 14 10 9 43 7 43 -3z m-50 -26
c0 -3 -13 -18 -29 -34 -40 -40 -51 -63 -40 -84 6 -10 9 -30 7 -45 -4 -35 -33
-41 -42 -8 -7 29 3 86 15 86 5 0 9 6 9 14 0 20 49 76 66 76 8 0 14 -2 14 -5z
m-30 -85 c0 -5 -7 -10 -16 -10 -8 0 -12 5 -9 10 3 6 10 10 16 10 5 0 9 -4 9
-10z m317 -163 c19 -11 20 -14 8 -31 -13 -17 -18 -17 -45 -6 -33 14 -36 20
-18 38 15 15 27 15 55 -1z m-39 -187 c30 0 72 -43 72 -73 0 -44 -30 -58 -172
-78 -73 -10 -167 -19 -209 -19 -72 0 -77 2 -102 30 -15 16 -27 35 -27 40 0 25
61 69 112 80 66 15 221 29 268 24 19 -2 45 -4 58 -4z m-475 -72 c-19 -39 -41
-77 -48 -85 -32 -32 -70 -214 -61 -298 6 -55 43 -135 64 -135 8 0 132 -116
132 -123 0 -3 -15 -1 -32 4 -18 5 -34 9 -34 9 -1 0 0 9 3 20 3 11 0 20 -6 20
-6 0 -11 -7 -11 -16 0 -13 -6 -12 -37 7 -21 13 -44 32 -52 43 -8 11 -23 28
-32 37 -29 29 -40 56 -46 122 -6 66 10 169 30 189 7 7 25 43 41 80 15 37 39
79 52 93 13 14 24 31 24 36 0 11 38 69 45 69 2 0 -12 -32 -32 -72z m387 -333
c0 -14 5 -25 10 -25 6 0 10 -13 10 -30 0 -16 -4 -30 -10 -30 -5 0 -10 -6 -10
-14 0 -7 -11 -16 -24 -18 -24 -5 -25 -3 -28 64 -3 68 0 76 35 77 12 1 17 -7
17 -24z m-70 -56 c0 -52 -3 -70 -12 -67 -21 7 -38 50 -38 96 0 38 2 42 25 42
24 0 25 -2 25 -71z m-260 -308 c0 -96 172 -147 415 -122 118 12 178 27 244 60
29 15 41 18 41 9 0 -7 -24 -23 -53 -36 -87 -37 -180 -52 -337 -52 -166 0 -252
18 -313 64 -31 24 -37 34 -37 67 0 32 3 39 20 39 15 0 20 -7 20 -29z m-149
-47 c-11 -15 -21 -33 -21 -40 0 -8 -4 -14 -10 -14 -5 0 -10 -16 -10 -35 0 -19
4 -35 9 -35 5 0 11 -7 14 -14 4 -10 1 -13 -9 -9 -17 6 -28 49 -25 94 1 15 62
88 70 83 2 -2 -6 -15 -18 -30z m209 -189 c13 -16 6 -35 -14 -35 -18 0 -39 27
-31 40 9 14 31 12 45 -5z m-184 -203 c-12 -11 -15 5 -8 44 l7 39 3 -39 c2 -21
1 -41 -2 -44z"/>
<path d="M1740 10 c0 -5 11 -10 25 -10 14 0 25 5 25 10 0 6 -11 10 -25 10 -14
0 -25 -4 -25 -10z"/>
<path d="M318 3 c7 -3 16 -2 19 1 4 3 -2 6 -13 5 -11 0 -14 -3 -6 -6z"/>
<path d="M1383 3 c15 -2 37 -2 50 0 12 2 0 4 -28 4 -27 0 -38 -2 -22 -4z"/>
</g>
</svg>
